<?xml version="1.0" encoding="utf-8"?>
<!-- Generator: Adobe Illustrator 17.1.0, SVG Export Plug-In . SVG Version: 6.00 Build 0)  -->
<!DOCTYPE svg PUBLIC "-//W3C//DTD SVG 1.1//EN" "http://www.w3.org/Graphics/SVG/1.1/DTD/svg11.dtd">
<svg version="1.1" id="Layer_1" xmlns="http://www.w3.org/2000/svg" xmlns:xlink="http://www.w3.org/1999/xlink" x="0px" y="0px"
	 viewBox="0 0 128 128" enable-background="new 0 0 128 128" xml:space="preserve">
<ellipse fill="#FF0000" stroke="#FFFFFF" stroke-width="4" stroke-miterlimit="10" cx="64" cy="64" rx="61.3" ry="61.5"/>
<path fill="#FFFFFF" d="M89.5,69.1c-1.5-0.1-3.4-3.2-4.2-10.1v-5.1c0-10.6-5.5-19.6-13.2-23.4c-1.1-4-4.3-6.9-8-6.9
	c-3.8,0-6.9,2.9-8,6.9c-7.7,3.8-13.2,12.8-13.2,23.4v5.1c-0.9,7-2.7,10-4.2,10.1c-2.4,0.2-4.2,2.2-4.2,5.1c0,2.4,1.1,3.5,2.6,5.1
	C41,83.5,50.2,89.3,64,89.3s23-5.8,27.2-10.1c1.5-1.6,2.6-2.7,2.6-5.1C93.7,71.3,91.9,69.2,89.5,69.1z M53.8,98.4
	c2.3,3.7,6,6,10.2,6s7.8-2.4,10.2-6c-3.1,0.6-6.5,1-10.2,1S56.9,99,53.8,98.4z"/>
</svg>
