<?xml version="1.0" encoding="utf-8"?>
<!-- Generator: Adobe Illustrator 17.1.0, SVG Export Plug-In . SVG Version: 6.00 Build 0)  -->
<!DOCTYPE svg PUBLIC "-//W3C//DTD SVG 1.1//EN" "http://www.w3.org/Graphics/SVG/1.1/DTD/svg11.dtd">
<svg version="1.1" id="Layer_1" xmlns="http://www.w3.org/2000/svg" xmlns:xlink="http://www.w3.org/1999/xlink" x="0px" y="0px"
	 viewBox="0 0 128 128" enable-background="new 0 0 128 128" xml:space="preserve">
<ellipse fill="#FF0000" stroke="#FFFFFF" stroke-width="4" stroke-miterlimit="10" cx="64" cy="64" rx="61.3" ry="61.5"/>
<g id="tv">
	<path fill="#FFFFFF" d="M78.2,43.5c-6.2-1.5-12.5-2.2-18.8-2.2S46.9,42,40.6,43.5c-0.8,0.2-1.5,0.9-1.7,1.7
		c-3.3,11.4-3.3,23,0,34.4c0.3,0.9,0.9,1.5,1.7,1.7c6.2,1.4,12.5,2.2,18.8,2.2c6.2,0,12.5-0.7,18.8-2.2c0.8-0.2,1.5-0.9,1.7-1.7
		c3.3-11.4,3.3-23,0-34.4C79.6,44.3,79,43.7,78.2,43.5z M77.7,78.8c-12.2,2.8-24.4,2.8-36.6,0c-3.2-10.9-3.2-21.9,0-32.8
		c12.2-2.8,24.4-2.8,36.6,0C80.9,56.9,80.9,67.9,77.7,78.8z"/>
	<path fill="#FFFFFF" d="M98.1,37.5c-0.4-2.1-2-3.7-3.9-4c-10-1.4-20.2-2.1-30.2-2.1c-10,0-20.2,0.7-30.2,2.1
		c-1.9,0.3-3.5,1.8-3.9,4c-3.5,16.7-3.5,33.7,0,50.5c0.4,2.1,2,3.7,3.9,4c4.8,0.7,9.7,1.2,14.5,1.5c-0.3,0.2-0.4,0.4-0.4,0.6
		c0,1.4,7.2,2.6,16.1,2.6s16.1-1.2,16.1-2.6c0-0.2-0.2-0.4-0.4-0.6c4.9-0.3,9.7-0.8,14.5-1.5c1.9-0.3,3.5-1.8,3.9-4
		C101.6,71.2,101.6,54.2,98.1,37.5z M93.6,86.7c-19.8,2.7-39.5,2.7-59.3,0c-3.4-16-3.4-32,0-48.1c19.8-2.7,39.5-2.7,59.3,0
		C97,54.7,97,70.7,93.6,86.7z"/>
	<path fill="#FFFFFF" d="M88.1,52.3c1.9,0,3.4-1.8,3.4-3.9s-1.5-3.9-3.4-3.9c-1.9,0-3.4,1.8-3.4,3.9S86.2,52.3,88.1,52.3z
		 M88.1,47.1c0.6,0,1.1,0.6,1.1,1.3s-0.5,1.3-1.1,1.3c-0.6,0-1.1-0.6-1.1-1.3S87.5,47.1,88.1,47.1z"/>
	<path fill="#FFFFFF" d="M90.4,78.3h-6.9c-0.6,0-1.1,0.6-1.1,1.3c0,0.7,0.5,1.3,1.1,1.3h6.9c0.6,0,1.1-0.6,1.1-1.3
		C91.6,78.9,91.1,78.3,90.4,78.3z"/>
	<path fill="#FFFFFF" d="M92.7,70.5h-6.9c-0.6,0-1.1,0.6-1.1,1.3c0,0.7,0.5,1.3,1.1,1.3h6.9c0.6,0,1.1-0.6,1.1-1.3
		C93.9,71.1,93.3,70.5,92.7,70.5z"/>
	<path fill="#FFFFFF" d="M92.7,62.7h-6.9c-0.6,0-1.1,0.6-1.1,1.3c0,0.7,0.5,1.3,1.1,1.3h6.9c0.6,0,1.1-0.6,1.1-1.3
		C93.9,63.3,93.3,62.7,92.7,62.7z"/>
	<path fill="#FFFFFF" d="M58.3,51.8l-10.5,0.9c-0.6,0.1-1.2,0.7-1.3,1.4l-0.7,7.3c0,0.7,0.5,1.3,1.1,1.3c0.6,0,1.2-0.6,1.2-1.3
		l0.4-4.9c0.1-0.7,0.7-1.4,1.3-1.4l8.6-0.7c0.6,0,1.1-0.6,1.1-1.4S58.9,51.7,58.3,51.8z"/>
</g>
</svg>
