<?xml version="1.0" encoding="utf-8"?>
<!-- Generator: Adobe Illustrator 17.1.0, SVG Export Plug-In . SVG Version: 6.00 Build 0)  -->
<!DOCTYPE svg PUBLIC "-//W3C//DTD SVG 1.1//EN" "http://www.w3.org/Graphics/SVG/1.1/DTD/svg11.dtd">
<svg version="1.1" id="Layer_1" xmlns="http://www.w3.org/2000/svg" xmlns:xlink="http://www.w3.org/1999/xlink" x="0px" y="0px"
	 viewBox="0 0 128 128" enable-background="new 0 0 128 128" xml:space="preserve">
<ellipse fill="#FF0000" stroke="#FFFFFF" stroke-width="4" stroke-miterlimit="10" cx="64" cy="64" rx="61.3" ry="61.5"/>
<path fill="#FFFFFF" d="M35.1,94.4c0,3.4,2.6,6.1,5.8,6.1h46.3c3.2,0,5.8-2.7,5.8-6.1V64c0-3.4-2.6-6.1-5.8-6.1H52.4V47.3
	c0-6.7,5.2-12.2,11.6-12.2s11.6,5.4,11.6,12.2V48c0,2.1,1.6,3.8,3.6,3.8c2,0,3.6-1.7,3.6-3.8v-0.8c0-10.9-8.4-19.8-18.8-19.8
	c-10.4,0-18.8,8.9-18.8,19.8v10.6h-4.3c-3.2,0-5.8,2.7-5.8,6.1L35.1,94.4L35.1,94.4z M58.2,74.6c0-3.4,2.6-6.1,5.8-6.1
	s5.8,2.7,5.8,6.1c0,2.1-1.1,4-2.6,5.1c0,0,0.6,3.6,1.2,7.8c0,1.3-1,2.3-2.2,2.3h-4.3c-1.2,0-2.2-1-2.2-2.3l1.2-7.8
	C59.3,78.7,58.2,76.8,58.2,74.6z"/>
</svg>
