<?xml version="1.0" encoding="utf-8"?>
<!-- Generator: Adobe Illustrator 17.1.0, SVG Export Plug-In . SVG Version: 6.00 Build 0)  -->
<!DOCTYPE svg PUBLIC "-//W3C//DTD SVG 1.1//EN" "http://www.w3.org/Graphics/SVG/1.1/DTD/svg11.dtd">
<svg version="1.1" id="Layer_1" xmlns="http://www.w3.org/2000/svg" xmlns:xlink="http://www.w3.org/1999/xlink" x="0px" y="0px"
	 viewBox="0 0 128 128" enable-background="new 0 0 128 128" xml:space="preserve">
<ellipse fill="#FF0000" stroke="#FFFFFF" stroke-width="4" stroke-miterlimit="10" cx="64" cy="64" rx="61.3" ry="61.5"/>
<g>
	<polyline fill="#FEFEFE" points="29.6,53.6 64.6,23.9 98.4,53.6 92.6,53.6 64.9,30 36.4,53.6 	"/>
	<polygon fill="#FEFEFE" points="34.1,58.9 38.8,58.9 38.8,100 90,100 90,58.9 95,58.9 95,104.1 34.1,104.1 	"/>
	<path fill="#FEFEFE" d="M47.7,77.1l4-12.9c8.7,0,25,0,25,0l4,12.9h-3.2l-3-9.6H54.7l-3.3,9.6"/>
	<path fill="#FEFEFE" d="M84.3,83.9c0,6.3-9.1,6.3-20.3,6.3s-20.3,0-20.3-6.3c0-5.1,9.1-6.3,20.3-6.3S84.3,78.3,84.3,83.9z"/>
	<path fill="#FEFEFE" d="M82,93.2c0,0.6-0.4,1-0.8,1H46.8c-0.4,0-0.8-0.5-0.8-1l0,0c0-0.6,0.4-1,0.8-1h34.4
		C81.6,92.2,82,92.7,82,93.2L82,93.2z"/>
	<ellipse fill="#FEFEFE" cx="53.2" cy="95.3" rx="2.1" ry="2"/>
	<ellipse fill="#FEFEFE" cx="75.1" cy="95.3" rx="2.1" ry="2"/>
	<ellipse fill="#FF0000" cx="49.7" cy="84.4" rx="3" ry="2.9"/>
	<ellipse fill="#FF0000" cx="79" cy="84.4" rx="3" ry="2.9"/>
</g>
</svg>
