<?xml version="1.0" encoding="utf-8"?>
<!-- Generator: Adobe Illustrator 17.1.0, SVG Export Plug-In . SVG Version: 6.00 Build 0)  -->
<!DOCTYPE svg PUBLIC "-//W3C//DTD SVG 1.1//EN" "http://www.w3.org/Graphics/SVG/1.1/DTD/svg11.dtd">
<svg version="1.1" id="Layer_1" xmlns="http://www.w3.org/2000/svg" xmlns:xlink="http://www.w3.org/1999/xlink" x="0px" y="0px"
	 viewBox="0 0 128 128" enable-background="new 0 0 128 128" xml:space="preserve">
<ellipse fill="#FF0000" stroke="#FFFFFF" stroke-width="4" stroke-miterlimit="10" cx="64.3" cy="63.8" rx="61.3" ry="61.5"/>
<g id="Layer_1_1_">
	<g>
		<path fill="#FFFFFF" d="M64,37.8c-1.1,0-1.9,1-1.9,2.2c0,1.2,0.9,2.2,1.9,2.2c4.1,0,7.5,3.8,7.5,8.6c0,1.2,0.9,2.2,1.9,2.2
			c1.1,0,1.9-1,1.9-2.2C75.3,43.6,70.2,37.8,64,37.8z"/>
		<path fill="#FFFFFF" d="M64,18.2c-15.8,0-28.7,14.7-28.7,32.7c0,6.5,1.7,12.7,4.9,18.2c0.1,0.2,0.2,0.4,0.3,0.6
			c7,11.4,8.2,15,8.2,18.3v13.1c0,2.4,1.7,4.4,3.8,4.4h7.6c0,1.1,0.4,2.3,1.1,3.1c0.7,0.8,1.7,1.3,2.7,1.3c1,0,2-0.5,2.7-1.3
			c0.7-0.8,1.1-2,1.1-3.1h7.6c2.1,0,3.8-2,3.8-4.4V88c0-3.4,1.2-7,8.2-18.3c3.4-5.6,5.2-12.1,5.2-18.8C92.7,32.9,79.8,18.2,64,18.2z
			 M71.6,96.7H56.4v-4.4h15.3V96.7z M81.2,64.7c-5.6,9.1-8.2,14.4-9.1,19h-4.2v-8.7c0-2.4-1.7-4.4-3.8-4.4c-2.1,0-3.8,2-3.8,4.4v8.7
			h-4.3c-0.9-4.5-3.4-9.6-8.8-18.4c-0.1-0.2-0.2-0.4-0.3-0.6c-2.5-4.1-3.8-8.8-3.8-13.7c0-13.2,9.4-24,21-24s21,10.8,21,24
			C85,55.8,83.7,60.6,81.2,64.7z"/>
	</g>
</g>
</svg>
