<?xml version="1.0" encoding="utf-8"?>
<!-- Generator: Adobe Illustrator 17.1.0, SVG Export Plug-In . SVG Version: 6.00 Build 0)  -->
<!DOCTYPE svg PUBLIC "-//W3C//DTD SVG 1.1//EN" "http://www.w3.org/Graphics/SVG/1.1/DTD/svg11.dtd">
<svg version="1.1" id="Layer_1" xmlns="http://www.w3.org/2000/svg" xmlns:xlink="http://www.w3.org/1999/xlink" x="0px" y="0px"
	 viewBox="0 0 128 128" enable-background="new 0 0 128 128" xml:space="preserve">
<rect fill="none" width="128" height="128"/>
<path fill="none" stroke="#FFFFFF" stroke-width="10" stroke-linecap="round" stroke-miterlimit="10" d="M125.4,71.7V56.3l-18.2-3.1
	c-1-4.4-2.8-8.4-5.1-12l10.8-15.1l-10.8-10.8L87,25.9c-3.8-2.3-7.9-4.1-12.3-5.1L71.7,2.6H56.3l-3.1,18.2c-4.4,1-8.4,2.8-12.3,5.1
	L26.1,15.1L15.4,25.9L25.6,41c-2.3,3.8-4.1,7.9-5.1,12.3L2.6,56.3v15.4l17.9,3.1c1,4.4,2.8,8.4,5.1,12.3l-10.8,14.8l10.8,10.8
	l15.1-10.5c3.8,2.3,7.9,4.1,12.3,5.1l3.3,18.2h15.4l3.3-18.2c4.4-1,8.4-2.8,12.3-5.1l15.1,10.8l10.8-10.8L102.4,87
	c2.3-3.8,3.8-7.7,5.1-12L125.4,71.7z M64,84.5c-11.3,0-20.5-9.2-20.5-20.5S52.7,43.5,64,43.5S84.5,52.7,84.5,64S75.3,84.5,64,84.5z"
	/>
</svg>
