<?xml version="1.0" encoding="utf-8"?>
<!-- Generator: Adobe Illustrator 17.1.0, SVG Export Plug-In . SVG Version: 6.00 Build 0)  -->
<!DOCTYPE svg PUBLIC "-//W3C//DTD SVG 1.1//EN" "http://www.w3.org/Graphics/SVG/1.1/DTD/svg11.dtd">
<svg version="1.1" id="Layer_1" xmlns="http://www.w3.org/2000/svg" xmlns:xlink="http://www.w3.org/1999/xlink" x="0px" y="0px"
	 viewBox="0 0 128 128" enable-background="new 0 0 128 128" xml:space="preserve">
<ellipse fill="#FF0000" stroke="#FFFFFF" stroke-width="4" stroke-miterlimit="10" cx="64.3" cy="63.8" rx="61.3" ry="61.5"/>
<g id="Icons_new_Arranged_Names">
	<g id="_x38_1_Thermometer_Quarter_Full">
		<path id="Oval_245" fill="#FFFFFF" d="M64,108.2c8.4,0,15.1-5.7,15.1-12.6c0-4.7-3-8.8-7.6-10.9V26.1c0-3.5-3.4-6.3-7.6-6.3
			c-4.2,0-7.6,2.8-7.6,6.3v58.6c-4.5,2.2-7.6,6.3-7.6,10.9C48.9,102.6,55.6,108.2,64,108.2z M64,105.1c-6.3,0-11.3-4.2-11.3-9.5
			c0-4.1,3.2-7.7,7.6-9c0-0.2,0-0.3,0-0.5V73.5c0-1.7,1.7-3.1,3.8-3.1c2.1,0,3.8,1.4,3.8,3.1v12.7c0,0.2,0,0.3,0,0.5
			c4.4,1.3,7.6,4.8,7.6,9C75.3,100.8,70.3,105.1,64,105.1z M64,114.6c-12.5,0-22.7-8.5-22.7-19c0-5.6,2.9-10.7,7.6-14.1V26.1
			c0-7,6.8-12.7,15.1-12.7c8.3,0,15.1,5.7,15.1,12.7v55.4c4.6,3.5,7.6,8.5,7.6,14.1C86.7,106.1,76.5,114.6,64,114.6z"/>
	</g>
</g>
</svg>
